<?xml version="1.0" encoding="UTF-8" standalone="no"?>
<!-- Generated by graphviz version 2.26.3 (20100126.1600)
 -->

<!-- Title: G Pages: 1 -->

<svg
   xmlns:dc="http://purl.org/dc/elements/1.1/"
   xmlns:cc="http://creativecommons.org/ns#"
   xmlns:rdf="http://www.w3.org/1999/02/22-rdf-syntax-ns#"
   xmlns:svg="http://www.w3.org/2000/svg"
   xmlns="http://www.w3.org/2000/svg"
   xmlns:xlink="http://www.w3.org/1999/xlink"
   xmlns:sodipodi="http://sodipodi.sourceforge.net/DTD/sodipodi-0.dtd"
   xmlns:inkscape="http://www.inkscape.org/namespaces/inkscape"
   width="1048pt"
   height="364pt"
   viewBox="0.00 0.00 1048.00 364.00"
   id="svg2"
   version="1.1"
   inkscape:version="0.48.3.1 r9886"
   sodipodi:docname="classes_simple.svg">
  <metadata
     id="metadata379">
    <rdf:RDF>
      <cc:Work
         rdf:about="">
        <dc:format>image/svg+xml</dc:format>
        <dc:type
           rdf:resource="http://purl.org/dc/dcmitype/StillImage" />
      </cc:Work>
    </rdf:RDF>
  </metadata>
  <defs
     id="defs377" />
  <sodipodi:namedview
     pagecolor="#ffffff"
     bordercolor="#666666"
     borderopacity="1"
     objecttolerance="10"
     gridtolerance="10"
     guidetolerance="10"
     inkscape:pageopacity="0"
     inkscape:pageshadow="2"
     inkscape:window-width="1508"
     inkscape:window-height="986"
     id="namedview375"
     showgrid="false"
     inkscape:zoom="1.4142136"
     inkscape:cx="429.90759"
     inkscape:cy="192.20369"
     inkscape:window-x="0"
     inkscape:window-y="0"
     inkscape:window-maximized="0"
     inkscape:current-layer="svg2" />
  <polygon
     style="fill:#ffffff;stroke:#ffffff"
     id="polygon7"
     points="-4,5 -4,5 -4,-360 1045,-360 1045,5 "
     transform="translate(9.6,359.2)" />
  <g
     class="node"
     id="node1"
     transform="translate(4,360)">
    <title
       id="title10">c10</title>
    <a
       xlink:href="null"
       xlink:title="&lt;TABLE&gt;"
       id="a12">
      <polygon
         style="fill:none;stroke:#000000"
         id="polygon14"
         points="501,-261 501,-242 416,-242 416,-242 416,-261 " />
      <text
         style="font-size:10px;text-anchor:start;font-family:'Helvetica,sans-Serif'"
         id="text16"
         font-size="10.00"
         y="-249.16701"
         x="420.5">EqualizerConfig</text>
    </a>
  </g>
  <g
     class="node"
     id="node2"
     transform="translate(4,360)">
    <title
       id="title19">c11</title>
    <a
       xlink:href="null"
       xlink:title="&lt;TABLE&gt;"
       id="a21">
      <polygon
         style="fill:none;stroke:#000000"
         id="polygon23"
         points="647,-347 647,-328 586,-328 586,-328 586,-347 " />
      <text
         style="font-size:10px;text-anchor:start;font-family:'Helvetica,sans-Serif'"
         id="text25"
         font-size="10.00"
         y="-335.16699"
         x="590.5">RTNeuron</text>
    </a>
  </g>
  <g
     class="edge"
     id="edge8"
     transform="translate(4,360)">
    <title
       id="title28">c11:p-&gt;c10:p</title>
    <path
       style="fill:none;stroke:#000000;stroke-dasharray:5, 2"
       inkscape:connector-curvature="0"
       id="path30"
       d="m 586.775,-328.439 c -18.037,6.414 -41.358,15.648 -60.775,26.439 -17.441,9.693 -35.568,23.222 -48.716,33.762" />
    <polygon
       style="fill:#000000;stroke:#000000"
       id="polygon32"
       points="473.293,-264.976 477.165,-268.14 477.165,-268.14 477.165,-268.14 473.293,-264.976 474.317,-271.625 469.421,-261.813 469.421,-261.813 469.421,-261.813 480.012,-264.655 " />
    <text
       style="font-size:10px;text-anchor:middle;font-family:'Helvetica,sans-Serif'"
       id="text34"
       font-size="10.00"
       y="-292.5"
       x="551.5">«manages»</text>
  </g>
  <g
     class="node"
     id="node4"
     transform="translate(4,360)">
    <title
       id="title37">c13</title>
    <a
       xlink:href="null"
       xlink:title="&lt;TABLE&gt;"
       id="a39">
      <polygon
         style="fill:none;stroke:#000000"
         id="polygon41"
         points="572,-261 572,-242 535,-242 535,-242 535,-261 " />
      <text
         style="font-size:10px;text-anchor:start;font-family:'Helvetica,sans-Serif'"
         id="text43"
         font-size="10.00"
         y="-249.16701"
         x="539.5">View</text>
    </a>
  </g>
  <g
     class="edge"
     id="edge4"
     transform="translate(4,360)">
    <title
       id="title46">c11:p-&gt;c13:p</title>
    <path
       style="fill:none;stroke:#000000"
       inkscape:connector-curvature="0"
       id="path48"
       d="m 601.78,-318.589 c -13.011,17.762 -31.719,43.3 -41.766,57.014" />
    <polygon
       style="fill:#000000;stroke:#000000"
       id="polygon50"
       points="609.017,-328.468 602.245,-325.992 601.926,-318.787 601.926,-318.787 608.698,-321.264 " />
    <text
       style="font-size:10px;text-anchor:middle;font-family:'Helvetica,sans-Serif'"
       id="text52"
       font-size="10.00"
       y="-261.08902"
       x="569.57898">*</text>
    <text
       style="font-size:10px;text-anchor:middle;font-family:'Helvetica,sans-Serif'"
       id="text54"
       font-size="10.00"
       y="-317.95398"
       x="596.25201">1</text>
  </g>
  <g
     class="node"
     id="node8"
     transform="translate(4,360)">
    <title
       id="title57">c17</title>
    <a
       xlink:href="null"
       xlink:title="&lt;TABLE&gt;"
       id="a59">
      <polygon
         style="fill:none;stroke:#000000"
         id="polygon61"
         points="688,-175 688,-156 645,-156 645,-156 645,-175 " />
      <text
         style="font-size:10px;text-anchor:start;font-family:'Helvetica,sans-Serif'"
         id="text63"
         font-size="10.00"
         y="-163.16701"
         x="649.5">Scene</text>
    </a>
  </g>
  <g
     class="edge"
     id="edge2"
     transform="translate(4,360)">
    <title
       id="title66">c11:p-&gt;c17:p</title>
    <path
       style="fill:none;stroke:#000000"
       inkscape:connector-curvature="0"
       id="path68"
       d="m 622.318,-316.265 c 10.963,37.71 33.081,113.799 40.882,140.632" />
    <polygon
       style="fill:none;stroke:#000000"
       id="polygon70"
       points="618.831,-328.26 616.665,-321.382 622.181,-316.737 622.181,-316.737 624.347,-323.615 " />
    <text
       style="font-size:10px;text-anchor:middle;font-family:'Helvetica,sans-Serif'"
       id="text72"
       font-size="10.00"
       y="-249.5"
       x="670.5">«weak-ref»</text>
    <text
       style="font-size:10px;text-anchor:middle;font-family:'Helvetica,sans-Serif'"
       id="text74"
       font-size="10.00"
       y="-183.01601"
       x="664.72803">1</text>
    <text
       style="font-size:10px;text-anchor:middle;font-family:'Helvetica,sans-Serif'"
       id="text76"
       font-size="10.00"
       y="-311.07703"
       x="616.10297">*</text>
  </g>
  <g
     class="node"
     id="node12"
     transform="translate(4,360)">
    <title
       id="title79">c23</title>
    <a
       xlink:href="null"
       xlink:title="&lt;TABLE&gt;"
       id="a81">
      <polygon
         style="fill:none;stroke:#000000"
         id="polygon83"
         points="802,-261 802,-242 713,-242 713,-242 713,-261 " />
      <text
         style="font-size:10px;text-anchor:start;font-family:'Helvetica,sans-Serif'"
         id="text85"
         font-size="10.00"
         y="-249.16701"
         x="717.5">SimulationPlayer</text>
    </a>
  </g>
  <g
     class="edge"
     id="edge6"
     transform="translate(4,360)">
    <title
       id="title88">c11:p-&gt;c23:p</title>
    <path
       style="fill:none;stroke:#000000"
       inkscape:connector-curvature="0"
       id="path90"
       d="m 642.232,-322 c 29.1,17.749 75.1,45.805 99.07,60.425" />
    <polygon
       style="fill:#000000;stroke:#000000"
       id="polygon92"
       points="631.628,-328.468 634.668,-321.929 641.873,-322.219 641.873,-322.219 638.833,-328.759 " />
    <text
       style="font-size:10px;text-anchor:middle;font-family:'Helvetica,sans-Serif'"
       id="text94"
       font-size="10.00"
       y="-265.40201"
       x="741.76501">1</text>
    <text
       style="font-size:10px;text-anchor:middle;font-family:'Helvetica,sans-Serif'"
       id="text96"
       font-size="10.00"
       y="-312.84097"
       x="637.16498">1</text>
  </g>
  <g
     class="node"
     id="node3"
     transform="translate(4,360)">
    <title
       id="title99">c12</title>
    <a
       xlink:href="null"
       xlink:title="&lt;TABLE&gt;"
       id="a101">
      <polygon
         style="fill:none;stroke:#000000"
         id="polygon103"
         points="578,-175 578,-156 528,-156 528,-156 528,-175 " />
      <text
         style="font-size:10px;text-anchor:start;font-family:'Helvetica,sans-Serif'"
         id="text105"
         font-size="10.00"
         y="-163.16701"
         x="532.5">Camera</text>
    </a>
  </g>
  <g
     class="edge"
     id="edge10"
     transform="translate(4,360)">
    <title
       id="title108">c13:p-&gt;c12:p</title>
    <path
       style="fill:none;stroke:#000000"
       inkscape:connector-curvature="0"
       id="path110"
       d="m 553,-230.286 c 0,17.606 0,41.579 0,54.711" />
    <polygon
       style="fill:none;stroke:#000000"
       id="polygon112"
       points="553,-242.468 549,-236.468 553,-230.468 553,-230.468 557,-236.468 " />
    <text
       style="font-size:10px;text-anchor:middle;font-family:'Helvetica,sans-Serif'"
       id="text114"
       font-size="10.00"
       y="-182.138"
       x="557.22601">1</text>
    <text
       style="font-size:10px;text-anchor:middle;font-family:'Helvetica,sans-Serif'"
       id="text116"
       font-size="10.00"
       y="-224.0322"
       x="548.04266">1</text>
  </g>
  <g
     class="edge"
     id="edge12"
     transform="translate(4,360)">
    <title
       id="title119">c13:p-&gt;c17:p</title>
    <path
       style="fill:none;stroke:#000000"
       inkscape:connector-curvature="0"
       id="path121"
       d="m 563.329,-231.721 c 5.868,9.962 13.981,21.549 23.671,29.721 16.937,14.284 40.472,24.034 57.442,29.747" />
    <polygon
       style="fill:none;stroke:#000000"
       id="polygon123"
       points="557.512,-242.368 556.878,-235.184 563.265,-231.837 563.265,-231.837 563.899,-239.02 " />
    <text
       style="font-size:10px;text-anchor:middle;font-family:'Helvetica,sans-Serif'"
       id="text125"
       font-size="10.00"
       y="-206.5"
       x="605.5">displays</text>
    <text
       style="font-size:10px;text-anchor:middle;font-family:'Helvetica,sans-Serif'"
       id="text127"
       font-size="10.00"
       y="-179.92302"
       x="637.271">0..1</text>
    <text
       style="font-size:10px;text-anchor:middle;font-family:'Helvetica,sans-Serif'"
       id="text129"
       font-size="10.00"
       y="-227.888"
       x="566.14801">*</text>
  </g>
  <g
     class="node"
     id="node10"
     transform="translate(4,360)">
    <title
       id="title132">c21</title>
    <a
       xlink:href="null"
       xlink:title="&lt;TABLE&gt;"
       id="a134">
      <polygon
         style="fill:none;stroke:#000000"
         id="polygon136"
         points="252,-175 252,-156 194,-156 194,-156 194,-175 " />
      <text
         style="font-size:10px;text-anchor:start;font-family:'Helvetica,sans-Serif'"
         id="text138"
         font-size="10.00"
         y="-163.16701"
         x="198.5">ColorMap</text>
    </a>
  </g>
  <g
     class="edge"
     id="edge14"
     transform="translate(4,360)">
    <title
       id="title141">c13:p-&gt;c21:p</title>
    <path
       style="fill:none;stroke:#000000"
       inkscape:connector-curvature="0"
       id="path143"
       d="m 522.73042,-245.30001 c -2.756,1.194 -18.93051,7.47128 -21.66251,8.41128 C 474.48691,-227.74573 295.968,-191.929 269,-184 c -7.898,2.322 -16.342,5.434 -23.811,8.417"
       sodipodi:nodetypes="cccc" />
    <polygon
       style="fill:none;stroke:#000000"
       id="polygon145"
       points="536.188,-242.439 529.051,-243.469 525.355,-237.277 525.355,-237.277 532.492,-236.247 " />
    <text
       style="font-size:10px;text-anchor:middle;font-family:'Helvetica,sans-Serif'"
       id="text147"
       font-size="10.00"
       y="-182.88899"
       x="249.972">1</text>
    <text
       style="font-size:10px;text-anchor:middle;font-family:'Helvetica,sans-Serif'"
       id="text149"
       font-size="10.00"
       y="-242.40057"
       x="521.37964">*</text>
  </g>
  <g
     class="node"
     id="node14"
     transform="translate(4,360)">
    <title
       id="title152">c28</title>
    <a
       xlink:href="null"
       xlink:title="&lt;TABLE&gt;"
       id="a154">
      <polygon
         style="fill:none;stroke:#000000"
         id="polygon156"
         points="386,-175 386,-156 286,-156 286,-156 286,-175 " />
      <text
         style="font-size:10px;text-anchor:start;font-family:'Helvetica,sans-Serif'"
         id="text158"
         font-size="10.00"
         y="-163.16701"
         x="290.5">CameraManipulator</text>
    </a>
  </g>
  <g
     class="edge"
     id="edge18"
     transform="translate(4,360)">
    <title
       id="title161">c13:p-&gt;c28:p</title>
    <path
       style="fill:none;stroke:#000000"
       inkscape:connector-curvature="0"
       id="path163"
       d="m 525.16237,-237.04958 c -2.365,1.109 -6.00179,2.75269 -8.30379,3.75669 -53.071,23.162 -116.66058,45.27689 -152.58958,57.70189"
       sodipodi:nodetypes="ccc" />
    <polygon
       style="fill:none;stroke:#000000"
       id="polygon165"
       points="524.074,-237.212 524.074,-237.212 531.22,-236.245 534.861,-242.469 527.715,-243.436 "
       transform="matrix(0.97957523,0.20107792,-0.20107792,0.97957523,-38.07513,-118.38959)" />
    <text
       style="font-size:10px;text-anchor:middle;font-family:'Helvetica,sans-Serif'"
       id="text167"
       font-size="10.00"
       y="-178.48003"
       x="366.21698">1</text>
    <text
       style="font-size:10px;text-anchor:middle;font-family:'Helvetica,sans-Serif'"
       id="text169"
       font-size="10.00"
       y="-233.47913"
       x="522.62347">*</text>
  </g>
  <g
     class="node"
     id="node18"
     transform="translate(4,360)">
    <title
       id="title172">c34</title>
    <a
       xlink:href="null"
       xlink:title="&lt;TABLE&gt;"
       id="a174">
      <polygon
         style="fill:none;stroke:#000000"
         id="polygon176"
         points="494,-175 494,-156 448,-156 448,-156 448,-175 " />
      <text
         style="font-size:10px;text-anchor:start;font-family:'Helvetica,sans-Serif'"
         id="text178"
         font-size="10.00"
         y="-163.16701"
         x="452.5">Pointer</text>
    </a>
  </g>
  <g
     class="edge"
     id="edge16"
     transform="translate(4,360)">
    <title
       id="title181">c13:p-&gt;c34:p</title>
    <path
       style="fill:none;stroke:#000000"
       inkscape:connector-curvature="0"
       id="path183"
       d="m 535.442,-233.586 c -16.963,17.791 -41.989,44.038 -55.313,58.011" />
    <polygon
       style="fill:none;stroke:#000000"
       id="polygon185"
       points="543.911,-242.468 536.876,-240.886 535.63,-233.783 535.63,-233.783 542.666,-235.365 " />
    <text
       style="font-size:10px;text-anchor:middle;font-family:'Helvetica,sans-Serif'"
       id="text187"
       font-size="10.00"
       y="-176.718"
       x="489.44199">1</text>
    <text
       style="font-size:10px;text-anchor:middle;font-family:'Helvetica,sans-Serif'"
       id="text189"
       font-size="10.00"
       y="-227.13261"
       x="531.62817">*</text>
  </g>
  <g
     class="node"
     id="node5"
     transform="translate(4,360)">
    <title
       id="title192">c14</title>
    <a
       xlink:href="null"
       xlink:title="&lt;TABLE&gt;"
       id="a194">
      <polygon
         style="fill:none;stroke:#000000"
         id="polygon196"
         points="692,-101 692,-82 640,-82 640,-82 640,-101 " />
      <text
         style="font-size:10px;text-anchor:start;font-family:'Helvetica,sans-Serif'"
         id="text198"
         font-size="10.00"
         y="-89.166702"
         x="644.5">Neurons</text>
    </a>
  </g>
  <g
     class="node"
     id="node6"
     transform="translate(4,360)">
    <title
       id="title201">c15</title>
    <a
       xlink:href="null"
       xlink:title="&lt;TABLE&gt;"
       id="a203">
      <polygon
         style="fill:none;stroke:#000000"
         id="polygon205"
         points="785,-101 785,-82 726,-82 726,-82 726,-101 " />
      <text
         style="font-size:10px;text-anchor:start;font-family:'Helvetica,sans-Serif'"
         id="text207"
         font-size="10.00"
         y="-89.166702"
         x="730.5">Synapses</text>
    </a>
  </g>
  <g
     class="node"
     id="node7"
     transform="translate(4,360)">
    <title
       id="title210">c16</title>
    <a
       xlink:href="null"
       xlink:title="&lt;TABLE&gt;"
       id="a212">
      <polygon
         style="fill:none;stroke:#000000"
         id="polygon214"
         points="954,-101 954,-82 818,-82 818,-82 818,-101 " />
      <text
         style="font-size:10px;text-anchor:start;font-family:'Helvetica,sans-Serif'"
         id="text216"
         font-size="10.00"
         y="-89.166702"
         x="822.5">CompartmentReportReader</text>
    </a>
  </g>
  <g
     class="edge"
     id="edge20"
     transform="translate(4,360)">
    <title
       id="title219">c17:p-&gt;c14:p</title>
    <path
       style="fill:none;stroke:#000000"
       inkscape:connector-curvature="0"
       id="path221"
       d="m 666,-144.311 c 0,14.023 0,31.609 0,42.398" />
    <polygon
       style="fill:none;stroke:#000000"
       id="polygon223"
       points="666,-156.326 662,-150.326 666,-144.326 666,-144.326 670,-150.326 " />
    <text
       style="font-size:10px;text-anchor:middle;font-family:'Helvetica,sans-Serif'"
       id="text225"
       font-size="10.00"
       y="-108.476"
       x="670.22601">*</text>
    <text
       style="font-size:10px;text-anchor:middle;font-family:'Helvetica,sans-Serif'"
       id="text227"
       font-size="10.00"
       y="-140.763"
       x="658.17401">*</text>
  </g>
  <g
     class="edge"
     id="edge22"
     transform="translate(4,360)">
    <title
       id="title230">c17:p-&gt;c15:p</title>
    <path
       style="fill:none;stroke:#000000"
       inkscape:connector-curvature="0"
       id="path232"
       d="m 687.077,-148.475 c 17.596,14.63 42.025,34.942 56.285,46.798" />
    <polygon
       style="fill:none;stroke:#000000"
       id="polygon234"
       points="677.635,-156.326 679.691,-149.414 686.862,-148.654 686.862,-148.654 684.806,-155.565 " />
    <text
       style="font-size:10px;text-anchor:middle;font-family:'Helvetica,sans-Serif'"
       id="text236"
       font-size="10.00"
       y="-108.221"
       x="739.09497">*</text>
    <text
       style="font-size:10px;text-anchor:middle;font-family:'Helvetica,sans-Serif'"
       id="text238"
       font-size="10.00"
       y="-140.782"
       x="678.302">*</text>
  </g>
  <g
     class="edge"
     id="edge28"
     transform="translate(4,360)">
    <title
       id="title241">c17:p-&gt;c16:p</title>
    <path
       style="fill:none;stroke:#000000"
       inkscape:connector-curvature="0"
       id="path243"
       d="m 699.46,-154.745 c 43.204,14.532 117.645,39.571 158.198,53.212" />
    <polygon
       style="fill:none;stroke:#000000"
       id="polygon245"
       points="687.899,-158.634 692.31,-152.93 699.273,-154.808 699.273,-154.808 694.861,-160.512 " />
    <text
       style="font-size:10px;text-anchor:middle;font-family:'Helvetica,sans-Serif'"
       id="text247"
       font-size="10.00"
       y="-105.528"
       x="862.41498">0..1</text>
    <text
       style="font-size:10px;text-anchor:middle;font-family:'Helvetica,sans-Serif'"
       id="text249"
       font-size="10.00"
       y="-144.039"
       x="697.54205">*</text>
  </g>
  <g
     class="node"
     id="node9"
     transform="translate(4,360)">
    <title
       id="title252">c18</title>
    <a
       xlink:href="null"
       xlink:title="&lt;TABLE&gt;"
       id="a254">
      <polygon
         style="fill:none;stroke:#000000"
         id="polygon256"
         points="1032,-101 1032,-82 988,-82 988,-82 988,-101 " />
      <text
         style="font-size:10px;font-style:oblique;text-anchor:start;font-family:'Helvetica,sans-Serif'"
         id="text258"
         font-size="10.00"
         font-style="oblique"
         y="-89.166702"
         x="992.5">Object</text>
    </a>
  </g>
  <g
     class="edge"
     id="edge24"
     transform="translate(4,360)">
    <title
       id="title261">c17:p-&gt;c18:p</title>
    <path
       style="fill:none;stroke:#000000"
       inkscape:connector-curvature="0"
       id="path263"
       d="m 699.669,-162.613 c 56.933,6.343 175.395,22.2 271.331,52.613 6.966,2.208 14.314,5.364 20.731,8.418" />
    <polygon
       style="fill:none;stroke:#000000"
       id="polygon265"
       points="687.524,-163.924 693.06,-159.303 699.455,-162.636 699.455,-162.636 693.919,-167.257 " />
    <text
       style="font-size:10px;text-anchor:middle;font-family:'Helvetica,sans-Serif'"
       id="text267"
       font-size="10.00"
       y="-106.765"
       x="985.32898">*</text>
    <text
       style="font-size:10px;text-anchor:middle;font-family:'Helvetica,sans-Serif'"
       id="text269"
       font-size="10.00"
       y="-166.64899"
       x="700.48102">1</text>
  </g>
  <g
     class="node"
     id="node11"
     transform="translate(4,360)">
    <title
       id="title272">c22</title>
    <a
       xlink:href="null"
       xlink:title="&lt;TABLE&gt;"
       id="a274">
      <polygon
         style="fill:none;stroke:#000000"
         id="polygon276"
         points="607,-101 607,-82 546,-82 546,-82 546,-101 " />
      <text
         style="font-size:10px;text-anchor:start;font-family:'Helvetica,sans-Serif'"
         id="text278"
         font-size="10.00"
         y="-89.166702"
         x="550.5">SpikeData</text>
    </a>
  </g>
  <g
     class="edge"
     id="edge26"
     transform="translate(4,360)">
    <title
       id="title281">c17:p-&gt;c22:p</title>
    <path
       style="fill:none;stroke:#000000"
       inkscape:connector-curvature="0"
       id="path283"
       d="m 644.935,-148.68 c -17.811,14.645 -42.679,35.092 -57.166,47.003" />
    <polygon
       style="fill:none;stroke:#000000"
       id="polygon285"
       points="654.234,-156.326 647.059,-155.605 644.965,-148.704 644.965,-148.704 652.14,-149.425 " />
    <text
       style="font-size:10px;text-anchor:middle;font-family:'Helvetica,sans-Serif'"
       id="text287"
       font-size="10.00"
       y="-104.868"
       x="581.45325">0..1</text>
    <text
       style="font-size:10px;text-anchor:middle;font-family:'Helvetica,sans-Serif'"
       id="text289"
       font-size="10.00"
       y="-147.334"
       x="640.94904">*</text>
  </g>
  <g
     class="node"
     id="node13"
     transform="translate(4,360)">
    <title
       id="title292">c26</title>
    <a
       xlink:href="null"
       xlink:title="&lt;TABLE&gt;"
       id="a294">
      <polygon
         style="fill:none;stroke:#000000"
         id="polygon296"
         points="371,-27 371,-8 301,-8 301,-8 301,-27 " />
      <text
         style="font-size:10px;text-anchor:start;font-family:'Helvetica,sans-Serif'"
         id="text298"
         font-size="10.00"
         y="-15.1667"
         x="305.5">CameraPath</text>
    </a>
  </g>
  <g
     class="node"
     id="node15"
     transform="translate(4,360)">
    <title
       id="title301">c29</title>
    <a
       xlink:href="null"
       xlink:title="&lt;TABLE&gt;"
       id="a303">
      <polygon
         style="fill:none;stroke:#000000"
         id="polygon305"
         points="397,-101 397,-82 276,-82 276,-82 276,-101 " />
      <text
         style="font-size:10px;text-anchor:start;font-family:'Helvetica,sans-Serif'"
         id="text307"
         font-size="10.00"
         y="-89.166702"
         x="280.5">CameraPathManipulator</text>
    </a>
  </g>
  <g
     class="edge"
     id="edge30"
     transform="translate(4,360)">
    <title
       id="title310">c28:p-&gt;c29:p</title>
    <path
       style="fill:none;stroke:#000000"
       inkscape:connector-curvature="0"
       id="path312"
       d="m 336,-146.027 c 0,14.277 0,32.88 0,44.114" />
    <polygon
       style="fill:none;stroke:#000000"
       id="polygon314"
       points="339.5,-146.326 332.5,-146.326 332.5,-146.326 336,-156.326 " />
  </g>
  <g
     class="node"
     id="node16"
     transform="translate(4,360)">
    <title
       id="title317">c31</title>
    <a
       xlink:href="null"
       xlink:title="&lt;TABLE&gt;"
       id="a319">
      <polygon
         style="fill:none;stroke:#000000"
         id="polygon321"
         points="114,-101 114,-82 8,-82 8,-82 8,-101 " />
      <text
         style="font-size:10px;text-anchor:start;font-family:'Helvetica,sans-Serif'"
         id="text323"
         font-size="10.00"
         y="-89.166702"
         x="12.5">TrackballManipulator</text>
    </a>
  </g>
  <g
     class="edge"
     id="edge34"
     transform="translate(4,360)">
    <title
       id="title326">c28:p-&gt;c31:p</title>
    <path
       style="fill:none;stroke:#000000"
       inkscape:connector-curvature="0"
       id="path328"
       d="m 290.902,-153.865 c -54.328,14.62 -144.478,38.878 -194.2138,52.262" />
    <polygon
       style="fill:none;stroke:#000000"
       id="polygon330"
       points="291.865,-150.499 290.046,-157.259 290.046,-157.259 300.612,-156.477 " />
  </g>
  <g
     class="node"
     id="node17"
     transform="translate(4,360)">
    <title
       id="title333">c32</title>
    <a
       xlink:href="null"
       xlink:title="&lt;TABLE&gt;"
       id="a335">
      <polygon
         style="fill:none;stroke:#000000"
         id="polygon337"
         points="242,-101 242,-82 148,-82 148,-82 148,-101 " />
      <text
         style="font-size:10px;text-anchor:start;font-family:'Helvetica,sans-Serif'"
         id="text339"
         font-size="10.00"
         y="-89.166702"
         x="152.5">VRPNManipulator</text>
    </a>
  </g>
  <g
     class="edge"
     id="edge36"
     transform="translate(4,360)">
    <title
       id="title342">c28:p-&gt;c32:p</title>
    <path
       style="fill:none;stroke:#000000"
       inkscape:connector-curvature="0"
       id="path344"
       d="m 308.978,-151.818 c -28.019,14.705 -71.07,37.299 -95.455,50.097" />
    <polygon
       style="fill:none;stroke:#000000"
       id="polygon346"
       points="310.627,-148.731 307.374,-154.929 307.374,-154.929 317.855,-156.477 " />
  </g>
  <g
     class="edge"
     id="edge32"
     transform="translate(4,360)">
    <title
       id="title349">c29:p-&gt;c26:p</title>
    <path
       style="fill:none;stroke:#000000"
       inkscape:connector-curvature="0"
       id="path351"
       d="m 336,-70.3107 c 0,14.0231 0,31.6088 0,42.3979" />
    <polygon
       style="fill:none;stroke:#000000"
       id="polygon353"
       points="336,-82.3258 332,-76.3258 336,-70.3258 336,-70.3258 340,-76.3258 " />
    <text
       style="font-size:10px;text-anchor:middle;font-family:'Helvetica,sans-Serif'"
       id="text355"
       font-size="10.00"
       y="-34.4758"
       x="340.22601">1</text>
    <text
       style="font-size:10px;text-anchor:middle;font-family:'Helvetica,sans-Serif'"
       id="text357"
       font-size="10.00"
       y="-64.362709"
       x="330.17398">*</text>
  </g>
  <g
     class="node"
     id="node19"
     transform="translate(4,360)">
    <title
       id="title360">c35</title>
    <a
       xlink:href="null"
       xlink:title="&lt;TABLE&gt;"
       id="a362">
      <polygon
         style="fill:none;stroke:#000000"
         id="polygon364"
         points="512,-101 512,-82 430,-82 430,-82 430,-101 " />
      <text
         style="font-size:10px;text-anchor:start;font-family:'Helvetica,sans-Serif'"
         id="text366"
         font-size="10.00"
         y="-89.166702"
         x="434.5">WiimotePointer</text>
    </a>
  </g>
  <g
     class="edge"
     id="edge38"
     transform="translate(4,360)">
    <title
       id="title369">c34:p-&gt;c35:p</title>
    <path
       style="fill:none;stroke:#000000"
       inkscape:connector-curvature="0"
       id="path371"
       d="m 471,-146.027 c 0,14.277 0,32.88 0,44.114" />
    <polygon
       style="fill:none;stroke:#000000"
       id="polygon373"
       points="474.5,-146.326 467.5,-146.326 467.5,-146.326 471,-156.326 " />
  </g>
</svg>
