<?xml version="1.0" encoding="UTF-8" standalone="no"?>
<!DOCTYPE svg PUBLIC "-//W3C//DTD SVG 1.1//EN"
 "http://www.w3.org/Graphics/SVG/1.1/DTD/svg11.dtd">
<!-- Generated by graphviz version 2.26.3 (20100126.1600)
 -->
<!-- Title: G Pages: 1 -->
<svg width="1739pt" height="1032pt"
 viewBox="0.00 0.00 1739.00 1032.00" xmlns="http://www.w3.org/2000/svg" xmlns:xlink="http://www.w3.org/1999/xlink">
<g id="graph1" class="graph" transform="scale(1 1) rotate(0) translate(4 1028)">
<title>G</title>
<polygon fill="white" stroke="white" points="-4,5 -4,-1028 1736,-1028 1736,5 -4,5"/>
<!-- c14 -->
<g id="node1" class="node"><title>c14</title>
<a xlink:href="null" xlink:title="&lt;TABLE&gt;">
<polygon fill="none" stroke="black" points="579,-676 579,-695 664,-695 664,-676 579,-676"/>
<text text-anchor="start" x="583.5" y="-683.167" font-family="Helvetica,sans-Serif" font-size="10.00"> EqualizerConfig </text>
</a>
</g>
<!-- c15 -->
<g id="node2" class="node"><title>c15</title>
<a xlink:href="null" xlink:title="&lt;TABLE&gt;">
<polygon fill="none" stroke="black" points="746,-1000 746,-1019 967,-1019 967,-1000 746,-1000"/>
<text text-anchor="start" x="830.5" y="-1007.17" font-family="Helvetica,sans-Serif" font-size="10.00"> RTNeuron </text>
<polygon fill="none" stroke="black" points="746,-982 746,-1000 967,-1000 967,-982 746,-982"/>
<text text-anchor="start" x="750" y="-988.667" font-family="Helvetica,sans-Serif" font-size="10.00"> &#160;frameIssued : RTNeuron.FrameIssuedSignal </text>
<polygon fill="none" stroke="black" points="746,-808 746,-982 967,-982 967,-808 746,-808"/>
<text text-anchor="start" x="750" y="-970.667" font-family="Helvetica,sans-Serif" font-size="10.00"> &#160;exit() </text>
<text text-anchor="start" x="750" y="-958.667" font-family="Helvetica,sans-Serif" font-size="10.00"> &#160;getViews() : View[] </text>
<text text-anchor="start" x="750" y="-946.667" font-family="Helvetica,sans-Serif" font-size="10.00"> &#160;createScene(attributes : AttributeMap) : Scene </text>
<text text-anchor="start" x="750" y="-934.667" font-family="Helvetica,sans-Serif" font-size="10.00"> &#160;getPlayer() : SimulationPlayer </text>
<text text-anchor="start" x="750" y="-922.667" font-family="Helvetica,sans-Serif" font-size="10.00"> &#160;record(params : RecordingParams) </text>
<text text-anchor="start" x="750" y="-910.667" font-family="Helvetica,sans-Serif" font-size="10.00"> &#160;pause() </text>
<text text-anchor="start" x="750" y="-898.667" font-family="Helvetica,sans-Serif" font-size="10.00"> &#160;resume() </text>
<text text-anchor="start" x="750" y="-886.667" font-family="Helvetica,sans-Serif" font-size="10.00"> &#160;frame() </text>
<text text-anchor="start" x="750" y="-874.667" font-family="Helvetica,sans-Serif" font-size="10.00"> &#160;waitFrame() </text>
<text text-anchor="start" x="750" y="-862.667" font-family="Helvetica,sans-Serif" font-size="10.00"> &#160;waitFrames(frames : int) </text>
<text text-anchor="start" x="750" y="-850.667" font-family="Helvetica,sans-Serif" font-size="10.00"> &#160;wait() </text>
<text text-anchor="start" x="750" y="-838.667" font-family="Helvetica,sans-Serif" font-size="10.00"> &#160;waitRecord() </text>
<text text-anchor="start" x="750" y="-826.667" font-family="Helvetica,sans-Serif" font-size="10.00"> &#160;getAttributes() : AttributeMap </text>
<text text-anchor="start" x="750" y="-814.667" font-family="Helvetica,sans-Serif" font-size="10.00"> &#160;getVersionString() : String </text>
</a>
</g>
<!-- c15&#45;&gt;c14 -->
<g id="edge8" class="edge"><title>c15:p&#45;&gt;c14:p</title>
<path fill="none" stroke="black" stroke-dasharray="5,2" d="M745.206,-816.949C723.153,-796.616 700.49,-774.971 680,-754 663.899,-737.521 646.778,-717.474 635.151,-703.431"/>
<polygon fill="black" stroke="black" points="628.679,-695.549 638.503,-700.422 631.852,-699.414 635.025,-703.278 635.025,-703.278 635.025,-703.278 631.852,-699.414 631.547,-706.134 628.679,-695.549 628.679,-695.549"/>
<text text-anchor="middle" x="733.5" y="-776.5" font-family="Helvetica,sans-Serif" font-size="10.00">«manages»</text>
</g>
<!-- c18 -->
<g id="node4" class="node"><title>c18</title>
<a xlink:href="null" xlink:title="&lt;TABLE&gt;">
<polygon fill="none" stroke="black" points="697,-700 697,-719 842,-719 842,-700 697,-700"/>
<text text-anchor="start" x="755.5" y="-707.167" font-family="Helvetica,sans-Serif" font-size="10.00"> View </text>
<polygon fill="none" stroke="black" points="697,-682 697,-700 842,-700 842,-682 697,-682"/>
<text text-anchor="start" x="701" y="-688.667" font-family="Helvetica,sans-Serif" font-size="10.00"> &#160;</text>
<polygon fill="none" stroke="black" points="697,-652 697,-682 842,-682 842,-652 697,-652"/>
<text text-anchor="start" x="701" y="-670.667" font-family="Helvetica,sans-Serif" font-size="10.00"> &#160;getAttributes() : AttributeMap </text>
<text text-anchor="start" x="701" y="-658.667" font-family="Helvetica,sans-Serif" font-size="10.00"> &#160;record(enable : boolean) </text>
</a>
</g>
<!-- c15&#45;&gt;c18 -->
<g id="edge4" class="edge"><title>c15:p&#45;&gt;c18:p</title>
<path fill="none" stroke="black" d="M811.363,-797.02C800.51,-768.578 789.752,-740.384 781.793,-719.525"/>
<polygon fill="black" stroke="black" points="811.405,-797.131 817.282,-801.311 815.684,-808.343 809.807,-804.163 811.405,-797.131"/>
<text text-anchor="middle" x="788.972" y="-723.986" font-family="Helvetica,sans-Serif" font-size="10.00">*</text>
<text text-anchor="middle" x="808.504" y="-798.882" font-family="Helvetica,sans-Serif" font-size="10.00">1</text>
</g>
<!-- c22 -->
<g id="node8" class="node"><title>c22</title>
<a xlink:href="null" xlink:title="&lt;TABLE&gt;">
<polygon fill="none" stroke="black" points="1021,-544 1021,-563 1671,-563 1671,-544 1021,-544"/>
<text text-anchor="start" x="1329" y="-551.167" font-family="Helvetica,sans-Serif" font-size="10.00"> Scene </text>
<polygon fill="none" stroke="black" points="1021,-514 1021,-544 1671,-544 1671,-514 1021,-514"/>
<text text-anchor="start" x="1025" y="-532.667" font-family="Helvetica,sans-Serif" font-size="10.00"> &#160;cellSelected : Scene.CellSelectedSignal </text>
<text text-anchor="start" x="1025" y="-520.667" font-family="Helvetica,sans-Serif" font-size="10.00"> &#160;modelSelected : Scene.ModelSelectedSignal </text>
<polygon fill="none" stroke="black" points="1021,-352 1021,-514 1671,-514 1671,-352 1021,-352"/>
<text text-anchor="start" x="1025" y="-502.667" font-family="Helvetica,sans-Serif" font-size="10.00"> &#160;getAttributes() : AttributeMap </text>
<text text-anchor="start" x="1025" y="-490.667" font-family="Helvetica,sans-Serif" font-size="10.00"> &#160;addNeurons(neurons : Neurons, attributes : AttributeMap) : Scene.Object </text>
<text text-anchor="start" x="1025" y="-478.667" font-family="Helvetica,sans-Serif" font-size="10.00"> &#160;addEfferentSynapses(synapses : Synapses, attributes : AttributeMap) : Scene.Object </text>
<text text-anchor="start" x="1025" y="-466.667" font-family="Helvetica,sans-Serif" font-size="10.00"> &#160;addAfferentSynapses(synapses : Synapses, attributes : AttributeMap) : Scene.Object </text>
<text text-anchor="start" x="1025" y="-454.667" font-family="Helvetica,sans-Serif" font-size="10.00"> &#160;addMesh(vertices : Vec3Array, primitive : DrawElementsUInt, colors : Vec4Array, normals : Vec3Array, attributes : AttributeMap) : Scene.Object </text>
<text text-anchor="start" x="1025" y="-442.667" font-family="Helvetica,sans-Serif" font-size="10.00"> &#160;update() </text>
<text text-anchor="start" x="1025" y="-430.667" font-family="Helvetica,sans-Serif" font-size="10.00"> &#160;getObjects() : Scene.Object[] </text>
<text text-anchor="start" x="1025" y="-418.667" font-family="Helvetica,sans-Serif" font-size="10.00"> &#160;remove(object : Scene.Object) </text>
<text text-anchor="start" x="1025" y="-406.667" font-family="Helvetica,sans-Serif" font-size="10.00"> &#160;clear() </text>
<text text-anchor="start" x="1025" y="-394.667" font-family="Helvetica,sans-Serif" font-size="10.00"> &#160;highlight(cell : int, on : boolean) </text>
<text text-anchor="start" x="1025" y="-382.667" font-family="Helvetica,sans-Serif" font-size="10.00"> &#160;setSimulation(reader : CompartmentReportReader) </text>
<text text-anchor="start" x="1025" y="-370.667" font-family="Helvetica,sans-Serif" font-size="10.00"> &#160;setSimulation(spikeData : SpikeData) </text>
<text text-anchor="start" x="1025" y="-358.667" font-family="Helvetica,sans-Serif" font-size="10.00"> &#160;getCircuitSceneBoundingSphere() : BoundingSphere </text>
</a>
</g>
<!-- c15&#45;&gt;c22 -->
<g id="edge2" class="edge"><title>c15:p&#45;&gt;c22:p</title>
<path fill="none" stroke="black" d="M858.726,-796.278C862.675,-725.972 872.043,-645.201 894,-618 899.866,-610.733 957.174,-588.896 1029.13,-563.598"/>
<polygon fill="none" stroke="black" points="858.72,-796.379 862.401,-802.58 858.093,-808.363 854.412,-802.162 858.72,-796.379"/>
<text text-anchor="middle" x="918.5" y="-683.5" font-family="Helvetica,sans-Serif" font-size="10.00">«weak&#45;ref»</text>
<text text-anchor="middle" x="1022" y="-568.107" font-family="Helvetica,sans-Serif" font-size="10.00">1</text>
<text text-anchor="middle" x="854.346" y="-796.591" font-family="Helvetica,sans-Serif" font-size="10.00">*</text>
</g>
<!-- c28 -->
<g id="node12" class="node"><title>c28</title>
<a xlink:href="null" xlink:title="&lt;TABLE&gt;">
<polygon fill="none" stroke="black" points="960,-730 960,-749 1264,-749 1264,-730 960,-730"/>
<text text-anchor="start" x="1072" y="-737.167" font-family="Helvetica,sans-Serif" font-size="10.00"> SimulationPlayer </text>
<polygon fill="none" stroke="black" points="960,-700 960,-730 1264,-730 1264,-700 960,-700"/>
<text text-anchor="start" x="964" y="-718.667" font-family="Helvetica,sans-Serif" font-size="10.00"> &#160;timestampChanged : SimulationPlayer.TimestampChangedSignal </text>
<text text-anchor="start" x="964" y="-706.667" font-family="Helvetica,sans-Serif" font-size="10.00"> &#160;finished : SimulationPlayer.PlaybackFinishedSignal </text>
<polygon fill="none" stroke="black" points="960,-622 960,-700 1264,-700 1264,-622 960,-622"/>
<text text-anchor="start" x="964" y="-688.667" font-family="Helvetica,sans-Serif" font-size="10.00"> &#160;setTimestamp(milliseconds : float) </text>
<text text-anchor="start" x="964" y="-676.667" font-family="Helvetica,sans-Serif" font-size="10.00"> &#160;setBeginTime(milliseconds : float) </text>
<text text-anchor="start" x="964" y="-664.667" font-family="Helvetica,sans-Serif" font-size="10.00"> &#160;setEndTime(milliseconds : float) </text>
<text text-anchor="start" x="964" y="-652.667" font-family="Helvetica,sans-Serif" font-size="10.00"> &#160;setSimulationDelta(milliseconds : float) </text>
<text text-anchor="start" x="964" y="-640.667" font-family="Helvetica,sans-Serif" font-size="10.00"> &#160;play() </text>
<text text-anchor="start" x="964" y="-628.667" font-family="Helvetica,sans-Serif" font-size="10.00"> &#160;pause() </text>
</a>
</g>
<!-- c15&#45;&gt;c28 -->
<g id="edge6" class="edge"><title>c15:p&#45;&gt;c28:p</title>
<path fill="none" stroke="black" d="M975.91,-807.205C998.022,-787.512 1020.46,-767.531 1040.56,-749.626"/>
<polygon fill="black" stroke="black" points="975.758,-807.341 973.937,-814.318 966.796,-815.322 968.617,-808.344 975.758,-807.341"/>
<text text-anchor="middle" x="1036.6" y="-756.309" font-family="Helvetica,sans-Serif" font-size="10.00">1</text>
<text text-anchor="middle" x="970.754" y="-803.638" font-family="Helvetica,sans-Serif" font-size="10.00">1</text>
</g>
<!-- c17 -->
<g id="node3" class="node"><title>c17</title>
<a xlink:href="null" xlink:title="&lt;TABLE&gt;">
<polygon fill="none" stroke="black" points="567,-508 567,-527 987,-527 987,-508 567,-508"/>
<text text-anchor="start" x="756.5" y="-515.167" font-family="Helvetica,sans-Serif" font-size="10.00"> Camera </text>
<polygon fill="none" stroke="black" points="567,-490 567,-508 987,-508 987,-490 567,-490"/>
<text text-anchor="start" x="571" y="-496.667" font-family="Helvetica,sans-Serif" font-size="10.00"> &#160;</text>
<polygon fill="none" stroke="black" points="567,-388 567,-490 987,-490 987,-388 567,-388"/>
<text text-anchor="start" x="571" y="-478.667" font-family="Helvetica,sans-Serif" font-size="10.00"> &#160;setProjectionPerspective(verticalFOV : float) </text>
<text text-anchor="start" x="571" y="-466.667" font-family="Helvetica,sans-Serif" font-size="10.00"> &#160;makeOrtho() </text>
<text text-anchor="start" x="571" y="-454.667" font-family="Helvetica,sans-Serif" font-size="10.00"> &#160;makePerspective() </text>
<text text-anchor="start" x="571" y="-442.667" font-family="Helvetica,sans-Serif" font-size="10.00"> &#160;setProjectionFrustum(left : float, right : float, top : float, bottom : float, near : float, far : float) </text>
<text text-anchor="start" x="571" y="-430.667" font-family="Helvetica,sans-Serif" font-size="10.00"> &#160;setProjectionOrtho(left : float, right : float, top : float, bottom : float, near : float, far : float) </text>
<text text-anchor="start" x="571" y="-418.667" font-family="Helvetica,sans-Serif" font-size="10.00"> &#160;setViewLookAt(eye : Vector3f, center : Vector3f, up : Vector3f) </text>
<text text-anchor="start" x="571" y="-406.667" font-family="Helvetica,sans-Serif" font-size="10.00"> &#160;setView(position : Vector3f, orientation : Orientation) </text>
<text text-anchor="start" x="571" y="-394.667" font-family="Helvetica,sans-Serif" font-size="10.00"> &#160;getView(position : Vector3f, orientation : Orientation) </text>
</a>
</g>
<!-- c18&#45;&gt;c17 -->
<g id="edge10" class="edge"><title>c18:p&#45;&gt;c17:p</title>
<path fill="none" stroke="black" d="M770.608,-640.165C771.74,-607.911 773.275,-564.153 774.558,-527.608"/>
<polygon fill="none" stroke="black" points="770.601,-640.365 774.388,-646.502 770.18,-652.358 766.393,-646.221 770.601,-640.365"/>
<text text-anchor="middle" x="778.463" y="-534.313" font-family="Helvetica,sans-Serif" font-size="10.00">1</text>
<text text-anchor="middle" x="766.275" y="-640.652" font-family="Helvetica,sans-Serif" font-size="10.00">1</text>
</g>
<!-- c18&#45;&gt;c22 -->
<g id="edge12" class="edge"><title>c18:p&#45;&gt;c22:p</title>
<path fill="none" stroke="black" d="M787.108,-641.35C797.699,-621.061 813.147,-598.784 834,-586 866.387,-566.145 966.833,-575.857 1004,-568 1010.71,-566.581 1017.48,-565.081 1024.28,-563.509"/>
<polygon fill="none" stroke="black" points="787.001,-641.568 787.952,-648.716 781.72,-652.343 780.768,-645.195 787.001,-641.568"/>
<text text-anchor="middle" x="852.5" y="-590.5" font-family="Helvetica,sans-Serif" font-size="10.00">displays</text>
<text text-anchor="middle" x="1016.4" y="-567.16" font-family="Helvetica,sans-Serif" font-size="10.00">0..1</text>
<text text-anchor="middle" x="781.913" y="-639.845" font-family="Helvetica,sans-Serif" font-size="10.00">*</text>
</g>
<!-- c26 -->
<g id="node10" class="node"><title>c26</title>
<a xlink:href="null" xlink:title="&lt;TABLE&gt;">
<polygon fill="none" stroke="black" points="157,-490 157,-509 320,-509 320,-490 157,-490"/>
<text text-anchor="start" x="214" y="-497.167" font-family="Helvetica,sans-Serif" font-size="10.00"> ColorMap </text>
<polygon fill="none" stroke="black" points="157,-472 157,-490 320,-490 320,-472 157,-472"/>
<text text-anchor="start" x="161" y="-478.667" font-family="Helvetica,sans-Serif" font-size="10.00"> &#160;</text>
<polygon fill="none" stroke="black" points="157,-406 157,-472 320,-472 320,-406 157,-406"/>
<text text-anchor="start" x="161" y="-460.667" font-family="Helvetica,sans-Serif" font-size="10.00"> &#160;getPoints() : Map&lt;&gt; </text>
<text text-anchor="start" x="161" y="-448.667" font-family="Helvetica,sans-Serif" font-size="10.00"> &#160;setRange(min : float, max : float) </text>
<text text-anchor="start" x="161" y="-436.667" font-family="Helvetica,sans-Serif" font-size="10.00"> &#160;getColor(value : float) : Vec4f </text>
<text text-anchor="start" x="161" y="-424.667" font-family="Helvetica,sans-Serif" font-size="10.00"> &#160;setTextureSize(texels : int) </text>
<text text-anchor="start" x="161" y="-412.667" font-family="Helvetica,sans-Serif" font-size="10.00"> &#160;getTextureSize() : int </text>
</a>
</g>
<!-- c18&#45;&gt;c26 -->
<g id="edge14" class="edge"><title>c18:p&#45;&gt;c26:p</title>
<path fill="none" stroke="black" d="M724.757,-644.581C711.311,-634.201 695.869,-624.251 680,-618 603.961,-588.048 577.843,-611.98 497,-600 424.833,-589.305 399.326,-604.226 336,-568 311.135,-553.776 289.269,-530.943 272.537,-509.757"/>
<polygon fill="none" stroke="black" points="724.828,-644.639 732.01,-645.29 734.172,-652.169 726.99,-651.518 724.828,-644.639"/>
<text text-anchor="middle" x="281.522" y="-511.647" font-family="Helvetica,sans-Serif" font-size="10.00">1</text>
<text text-anchor="middle" x="724.463" y="-647.272" font-family="Helvetica,sans-Serif" font-size="10.00">*</text>
</g>
<!-- c33 -->
<g id="node14" class="node"><title>c33</title>
<a xlink:href="null" xlink:title="&lt;TABLE&gt;">
<polygon fill="none" stroke="black" points="353,-448 353,-467 453,-467 453,-448 353,-448"/>
<text text-anchor="start" x="357.5" y="-455.167" font-family="Helvetica,sans-Serif" font-size="10.00"> CameraManipulator </text>
</a>
</g>
<!-- c18&#45;&gt;c33 -->
<g id="edge18" class="edge"><title>c18:p&#45;&gt;c33:p</title>
<path fill="none" stroke="black" d="M723.72,-644.667C710.453,-634.502 695.361,-624.641 680,-618 591.935,-579.929 545.483,-627.223 470,-568 434.815,-540.395 413.713,-488.784 406.165,-467.525"/>
<polygon fill="none" stroke="black" points="724.101,-644.971 731.286,-645.584 733.484,-652.452 726.299,-651.839 724.101,-644.971"/>
<text text-anchor="middle" x="413.269" y="-472.063" font-family="Helvetica,sans-Serif" font-size="10.00">1</text>
<text text-anchor="middle" x="723.763" y="-647.606" font-family="Helvetica,sans-Serif" font-size="10.00">*</text>
</g>
<!-- c39 -->
<g id="node18" class="node"><title>c39</title>
<a xlink:href="null" xlink:title="&lt;TABLE&gt;">
<polygon fill="none" stroke="black" points="487,-448 487,-467 533,-467 533,-448 487,-448"/>
<text text-anchor="start" x="491.5" y="-455.167" font-family="Helvetica,sans-Serif" font-size="10.00"> Pointer </text>
</a>
</g>
<!-- c18&#45;&gt;c39 -->
<g id="edge16" class="edge"><title>c18:p&#45;&gt;c39:p</title>
<path fill="none" stroke="black" d="M720.123,-644.708C707.528,-635.194 693.66,-625.637 680,-618 625.968,-587.791 593.368,-612.174 550,-568 521.67,-539.144 513.214,-488.681 510.853,-467.64"/>
<polygon fill="none" stroke="black" points="720.432,-644.947 727.625,-645.456 729.922,-652.291 722.729,-651.782 720.432,-644.947"/>
<text text-anchor="middle" x="516.184" y="-473.6" font-family="Helvetica,sans-Serif" font-size="10.00">1</text>
<text text-anchor="middle" x="720.168" y="-647.587" font-family="Helvetica,sans-Serif" font-size="10.00">*</text>
</g>
<!-- c19 -->
<g id="node5" class="node"><title>c19</title>
<a xlink:href="null" xlink:title="&lt;TABLE&gt;">
<polygon fill="none" stroke="black" points="1231,-244 1231,-263 1283,-263 1283,-244 1231,-244"/>
<text text-anchor="start" x="1235.5" y="-251.167" font-family="Helvetica,sans-Serif" font-size="10.00"> Neurons </text>
</a>
</g>
<!-- c20 -->
<g id="node6" class="node"><title>c20</title>
<a xlink:href="null" xlink:title="&lt;TABLE&gt;">
<polygon fill="none" stroke="black" points="1317,-244 1317,-263 1376,-263 1376,-244 1317,-244"/>
<text text-anchor="start" x="1321.5" y="-251.167" font-family="Helvetica,sans-Serif" font-size="10.00"> Synapses </text>
</a>
</g>
<!-- c21 -->
<g id="node7" class="node"><title>c21</title>
<a xlink:href="null" xlink:title="&lt;TABLE&gt;">
<polygon fill="none" stroke="black" points="1409,-244 1409,-263 1545,-263 1545,-244 1409,-244"/>
<text text-anchor="start" x="1413.5" y="-251.167" font-family="Helvetica,sans-Serif" font-size="10.00"> CompartmentReportReader </text>
</a>
</g>
<!-- c22&#45;&gt;c19 -->
<g id="edge20" class="edge"><title>c22:p&#45;&gt;c19:p</title>
<path fill="none" stroke="black" d="M1295.12,-341.374C1280.99,-308.989 1267.74,-278.612 1261.22,-263.67"/>
<polygon fill="none" stroke="black" points="1295.14,-341.416 1301.2,-345.316 1299.94,-352.415 1293.87,-348.515 1295.14,-341.416"/>
<text text-anchor="middle" x="1268.72" y="-267.787" font-family="Helvetica,sans-Serif" font-size="10.00">*</text>
<text text-anchor="middle" x="1292.44" y="-343.298" font-family="Helvetica,sans-Serif" font-size="10.00">*</text>
</g>
<!-- c22&#45;&gt;c20 -->
<g id="edge22" class="edge"><title>c22:p&#45;&gt;c20:p</title>
<path fill="none" stroke="black" d="M1346,-340.108C1346,-308.199 1346,-278.417 1346,-263.67"/>
<polygon fill="none" stroke="black" points="1346,-340.415 1350,-346.415 1346,-352.415 1342,-346.415 1346,-340.415"/>
<text text-anchor="middle" x="1350.23" y="-270.233" font-family="Helvetica,sans-Serif" font-size="10.00">*</text>
<text text-anchor="middle" x="1341.77" y="-340.852" font-family="Helvetica,sans-Serif" font-size="10.00">*</text>
</g>
<!-- c22&#45;&gt;c21 -->
<g id="edge28" class="edge"><title>c22:p&#45;&gt;c21:p</title>
<path fill="none" stroke="black" d="M1420.35,-342.22C1441.35,-309.518 1461.11,-278.742 1470.79,-263.67"/>
<polygon fill="none" stroke="black" points="1420.29,-342.317 1420.41,-349.527 1413.8,-352.415 1413.68,-345.205 1420.29,-342.317"/>
<text text-anchor="middle" x="1469.45" y="-271.08" font-family="Helvetica,sans-Serif" font-size="10.00">0..1</text>
<text text-anchor="middle" x="1415.14" y="-340.005" font-family="Helvetica,sans-Serif" font-size="10.00">*</text>
</g>
<!-- c23 -->
<g id="node9" class="node"><title>c23</title>
<a xlink:href="null" xlink:title="&lt;TABLE&gt;">
<polygon fill="none" stroke="black" points="1579,-274 1579,-293 1724,-293 1724,-274 1579,-274"/>
<text text-anchor="start" x="1634" y="-281.167" font-family="Helvetica,sans-Serif" font-style="oblique" font-size="10.00"> Object </text>
<polygon fill="none" stroke="black" points="1579,-256 1579,-274 1724,-274 1724,-256 1579,-256"/>
<text text-anchor="start" x="1583" y="-262.667" font-family="Helvetica,sans-Serif" font-size="10.00"> &#160;</text>
<polygon fill="none" stroke="black" points="1579,-214 1579,-256 1724,-256 1724,-214 1579,-214"/>
<text text-anchor="start" x="1583" y="-244.667" font-family="Helvetica,sans-Serif" font-style="oblique" font-size="10.00"> &#160;getAttributes() : AttributeMap </text>
<text text-anchor="start" x="1583" y="-232.667" font-family="Helvetica,sans-Serif" font-style="oblique" font-size="10.00"> &#160;update() </text>
<text text-anchor="start" x="1583" y="-220.667" font-family="Helvetica,sans-Serif" font-style="oblique" font-size="10.00"> &#160;getObject() : Any </text>
</a>
</g>
<!-- c22&#45;&gt;c23 -->
<g id="edge24" class="edge"><title>c22:p&#45;&gt;c23:p</title>
<path fill="none" stroke="black" d="M1514.14,-345.536C1541.99,-326.911 1569.14,-308.756 1591.81,-293.59"/>
<polygon fill="none" stroke="black" points="1513.83,-345.743 1511.07,-352.404 1503.86,-352.415 1506.62,-345.754 1513.83,-345.743"/>
<text text-anchor="middle" x="1586.62" y="-299.642" font-family="Helvetica,sans-Serif" font-size="10.00">*</text>
<text text-anchor="middle" x="1509.04" y="-341.363" font-family="Helvetica,sans-Serif" font-size="10.00">1</text>
</g>
<!-- c27 -->
<g id="node11" class="node"><title>c27</title>
<a xlink:href="null" xlink:title="&lt;TABLE&gt;">
<polygon fill="none" stroke="black" points="1137,-262 1137,-281 1198,-281 1198,-262 1137,-262"/>
<text text-anchor="start" x="1141.5" y="-269.167" font-family="Helvetica,sans-Serif" font-size="10.00"> SpikeData </text>
<polygon fill="none" stroke="black" points="1137,-244 1137,-262 1198,-262 1198,-244 1137,-244"/>
<text text-anchor="start" x="1141" y="-250.667" font-family="Helvetica,sans-Serif" font-size="10.00"> &#160;</text>
<polygon fill="none" stroke="black" points="1137,-226 1137,-244 1198,-244 1198,-226 1137,-226"/>
<text text-anchor="start" x="1141" y="-232.667" font-family="Helvetica,sans-Serif" font-size="10.00"> &#160;</text>
</a>
</g>
<!-- c22&#45;&gt;c27 -->
<g id="edge26" class="edge"><title>c22:p&#45;&gt;c27:p</title>
<path fill="none" stroke="black" d="M1243.2,-343.423C1233.29,-332.169 1223.42,-320.888 1214,-310 1206.11,-300.882 1197.6,-290.819 1190.02,-281.768"/>
<polygon fill="none" stroke="black" points="1243.21,-343.437 1250.18,-345.289 1251.15,-352.435 1244.18,-350.583 1243.21,-343.437"/>
<text text-anchor="middle" x="1199.09" y="-283.499" font-family="Helvetica,sans-Serif" font-size="10.00">0..1</text>
<text text-anchor="middle" x="1241.99" y="-345.936" font-family="Helvetica,sans-Serif" font-size="10.00">*</text>
</g>
<!-- c31 -->
<g id="node13" class="node"><title>c31</title>
<a xlink:href="null" xlink:title="&lt;TABLE&gt;">
<polygon fill="none" stroke="black" points="464,-136 464,-155 766,-155 766,-136 464,-136"/>
<text text-anchor="start" x="584.5" y="-143.167" font-family="Helvetica,sans-Serif" font-size="10.00"> CameraPath </text>
<polygon fill="none" stroke="black" points="464,-118 464,-136 766,-136 766,-118 464,-118"/>
<text text-anchor="start" x="468" y="-124.667" font-family="Helvetica,sans-Serif" font-size="10.00"> &#160;</text>
<polygon fill="none" stroke="black" points="464,-4 464,-118 766,-118 766,-4 464,-4"/>
<text text-anchor="start" x="468" y="-106.667" font-family="Helvetica,sans-Serif" font-size="10.00"> &#160;getStartTime() : double </text>
<text text-anchor="start" x="468" y="-94.6667" font-family="Helvetica,sans-Serif" font-size="10.00"> &#160;getStopTime() : double </text>
<text text-anchor="start" x="468" y="-82.6667" font-family="Helvetica,sans-Serif" font-size="10.00"> &#160;addKeyFrame(seconds : double, frame : CameraPath.KeyFrame) </text>
<text text-anchor="start" x="468" y="-70.6667" font-family="Helvetica,sans-Serif" font-size="10.00"> &#160;addKeyFrame(seconds : double, view : View) </text>
<text text-anchor="start" x="468" y="-58.6667" font-family="Helvetica,sans-Serif" font-size="10.00"> &#160;replaceKeyFrame(index : int, frame : CameraPath.KeyFrame) </text>
<text text-anchor="start" x="468" y="-46.6667" font-family="Helvetica,sans-Serif" font-size="10.00"> &#160;getKeyFrame(index : int) : CameraPath.KeyFrame </text>
<text text-anchor="start" x="468" y="-34.6667" font-family="Helvetica,sans-Serif" font-size="10.00"> &#160;removeKeyFrame(index : int) </text>
<text text-anchor="start" x="468" y="-22.6667" font-family="Helvetica,sans-Serif" font-size="10.00"> &#160;getKeyFrames() : Pair&lt;&gt;[] </text>
<text text-anchor="start" x="468" y="-10.6667" font-family="Helvetica,sans-Serif" font-size="10.00"> &#160;clear() </text>
</a>
</g>
<!-- c34 -->
<g id="node15" class="node"><title>c34</title>
<a xlink:href="null" xlink:title="&lt;TABLE&gt;">
<polygon fill="none" stroke="black" points="472,-286 472,-305 759,-305 759,-286 472,-286"/>
<text text-anchor="start" x="559.5" y="-293.167" font-family="Helvetica,sans-Serif" font-size="10.00"> CameraPathManipulator </text>
<polygon fill="none" stroke="black" points="472,-268 472,-286 759,-286 759,-268 472,-268"/>
<text text-anchor="start" x="476" y="-274.667" font-family="Helvetica,sans-Serif" font-size="10.00"> &#160;</text>
<polygon fill="none" stroke="black" points="472,-202 472,-268 759,-268 759,-202 472,-202"/>
<text text-anchor="start" x="476" y="-256.667" font-family="Helvetica,sans-Serif" font-size="10.00"> &#160;setPath(cameraPath : CameraPath) </text>
<text text-anchor="start" x="476" y="-244.667" font-family="Helvetica,sans-Serif" font-size="10.00"> &#160;setPlaybackStart(start : float) </text>
<text text-anchor="start" x="476" y="-232.667" font-family="Helvetica,sans-Serif" font-size="10.00"> &#160;setPlaybackStop(end : float) </text>
<text text-anchor="start" x="476" y="-220.667" font-family="Helvetica,sans-Serif" font-size="10.00"> &#160;setFrameDelta(milliseconds : float) </text>
<text text-anchor="start" x="476" y="-208.667" font-family="Helvetica,sans-Serif" font-size="10.00"> &#160;setLoopMode(loopMode : CameraPathManipulator.LoopMode) </text>
</a>
</g>
<!-- c33&#45;&gt;c34 -->
<g id="edge30" class="edge"><title>c33:p&#45;&gt;c34:p</title>
<path fill="none" stroke="black" d="M411.322,-438.988C422.257,-415.568 443.25,-375.512 470,-348 485.162,-332.406 503.366,-318.105 521.673,-305.616"/>
<polygon fill="none" stroke="black" points="408.088,-437.645 407.143,-448.198 414.462,-440.538 408.088,-437.645"/>
</g>
<!-- c36 -->
<g id="node16" class="node"><title>c36</title>
<a xlink:href="null" xlink:title="&lt;TABLE&gt;">
<polygon fill="none" stroke="black" points="8,-268 8,-287 310,-287 310,-268 8,-268"/>
<text text-anchor="start" x="110.5" y="-275.167" font-family="Helvetica,sans-Serif" font-size="10.00"> TrackballManipulator </text>
<polygon fill="none" stroke="black" points="8,-250 8,-268 310,-268 310,-250 8,-250"/>
<text text-anchor="start" x="12" y="-256.667" font-family="Helvetica,sans-Serif" font-size="10.00"> &#160;</text>
<polygon fill="none" stroke="black" points="8,-220 8,-250 310,-250 310,-220 8,-220"/>
<text text-anchor="start" x="12" y="-238.667" font-family="Helvetica,sans-Serif" font-size="10.00"> &#160;setHomePosition(eye : Vector3f, center : Vector3f, up : Vector3f) </text>
<text text-anchor="start" x="12" y="-226.667" font-family="Helvetica,sans-Serif" font-size="10.00"> &#160;getHomePosition(eye : Vector3f, center : Vector3f, up : Vector3f) </text>
</a>
</g>
<!-- c33&#45;&gt;c36 -->
<g id="edge34" class="edge"><title>c33:p&#45;&gt;c36:p</title>
<path fill="none" stroke="black" d="M395.219,-438.962C384.724,-415.195 364.062,-374.457 336,-348 309.544,-323.058 275.194,-302.815 243.802,-287.592"/>
<polygon fill="none" stroke="black" points="392.058,-440.472 399.202,-448.296 398.497,-437.725 392.058,-440.472"/>
</g>
<!-- c37 -->
<g id="node17" class="node"><title>c37</title>
<a xlink:href="null" xlink:title="&lt;TABLE&gt;">
<polygon fill="none" stroke="black" points="344,-244 344,-263 438,-263 438,-244 344,-244"/>
<text text-anchor="start" x="348.5" y="-251.167" font-family="Helvetica,sans-Serif" font-size="10.00"> VRPNManipulator </text>
</a>
</g>
<!-- c33&#45;&gt;c37 -->
<g id="edge36" class="edge"><title>c33:p&#45;&gt;c37:p</title>
<path fill="none" stroke="black" d="M401.835,-438.188C399.315,-395.348 393.436,-295.413 391.575,-263.782"/>
<polygon fill="none" stroke="black" points="398.356,-438.657 402.437,-448.434 405.344,-438.246 398.356,-438.657"/>
</g>
<!-- c34&#45;&gt;c31 -->
<g id="edge32" class="edge"><title>c34:p&#45;&gt;c31:p</title>
<path fill="none" stroke="black" d="M615,-189.952C615,-178.803 615,-167.113 615,-155.688"/>
<polygon fill="none" stroke="black" points="615,-190.265 619,-196.265 615,-202.265 611,-196.265 615,-190.265"/>
<text text-anchor="middle" x="619.226" y="-162.251" font-family="Helvetica,sans-Serif" font-size="10.00">1</text>
<text text-anchor="middle" x="610.774" y="-190.702" font-family="Helvetica,sans-Serif" font-size="10.00">*</text>
</g>
<!-- c40 -->
<g id="node19" class="node"><title>c40</title>
<a xlink:href="null" xlink:title="&lt;TABLE&gt;">
<polygon fill="none" stroke="black" points="792,-244 792,-263 874,-263 874,-244 792,-244"/>
<text text-anchor="start" x="796.5" y="-251.167" font-family="Helvetica,sans-Serif" font-size="10.00"> WiimotePointer </text>
</a>
</g>
<!-- c39&#45;&gt;c40 -->
<g id="edge38" class="edge"><title>c39:p&#45;&gt;c40:p</title>
<path fill="none" stroke="black" d="M511.349,-438.096C514.175,-413.041 522.923,-370.561 550,-348 627.915,-283.08 684.47,-355.711 775,-310 796.99,-298.896 816.158,-276.592 825.99,-263.735"/>
<polygon fill="none" stroke="black" points="507.846,-437.97 510.423,-448.247 514.817,-438.606 507.846,-437.97"/>
</g>
</g>
</svg>
